#!OML:ASF X:\für Bonn\!DataBase\2005_08_11_Bastian_Final\c3d\Bastian.ASF
:FULLY-SPECIFIED
:DEGREES
82
root -0.11671 10.6381 6.87092 168.116 -7.55579 -176.496
lowerback 24.7354 -2.70282 2.17768
upperback 4.88715 -3.99454 -0.437732
thorax -8.49407 -2.37232 -0.41366
lowerneck -4.0445 -8.14255 -4.32827
upperneck -11.2119 -9.0785 12.5405
head -1.82188 -4.28937 4.44883
rclavicle -2.45499e-014 -7.95139e-016
rhumerus 70.0592 9.83831 1.95879
rradius 42.2173
rwrist -55.6378
rhand -43.8426 -5.70328
rfingers 7.12502
rthumb -16.6696 -35.0075
lclavicle -2.45499e-014 -7.95139e-016
lhumerus 64.6119 -11.0997 -3.07942
lradius 31.9739
lwrist 4.79056
lhand -43.0951 11.378
lfingers 7.12502
lthumb -15.9499 40.7413
rfemur -46.4681 -14.6897 29.3965
rtibia 122.143
rfoot -50.2997 -16.4981
rtoes -5.10789
lfemur -49.3934 4.17923 -15.157
ltibia 124.055
lfoot -44.2112 -16.4211
ltoes -5.22747
83
root -0.119601 10.4908 6.85732 167.891 -7.48378 -176.493
lowerback 24.9037 -2.64855 2.13819
upperback 4.96978 -3.95372 -0.43107
thorax -8.48411 -2.36112 -0.389984
lowerneck -4.16202 -8.17434 -4.26168
upperneck -11.2024 -9.11736 12.5067
head -1.80227 -4.30369 4.42239
rclavicle 3.24019e-014 -6.75868e-015
rhumerus 70.0499 9.7631 2.40258
rradius 42.2452
rwrist -55.8487
rhand -43.8376 -5.94815
rfingers 7.12502
rthumb -16.6649 -35.2528
lclavicle 3.24019e-014 -6.75868e-015
lhumerus 64.5993 -10.9952 -2.79134
lradius 31.7866
lwrist 4.25069
lhand -42.857 11.2817
lfingers 7.12502
lthumb -15.7207 40.6631
rfemur -46.8175 -15.0798 29.4469
rtibia 123.495
rfoot -50.6826 -16.6064
rtoes -5.15961
lfemur -49.8366 4.75205 -15.0269
ltibia 125.508
lfoot -44.6034 -16.5909
ltoes -5.46352
84
root -0.122267 10.3485 6.8436 167.673 -7.41202 -176.507
lowerback 25.0657 -2.58989 2.07726
upperback 5.04525 -3.91198 -0.428177
thorax -8.47776 -2.34852 -0.358768
lowerneck -4.3075 -8.20418 -4.16926
upperneck -10.931 -9.21492 12.1049
head -1.94846 -4.31525 4.73689
rclavicle 1.72943e-014 -4.77083e-015
rhumerus 70.0314 9.70585 2.75146
rradius 42.2467
rwrist -56.0069
rhand -43.8122 -6.09637
rfingers 7.12502
rthumb -16.6405 -35.403
lclavicle 1.72943e-014 -4.77083e-015
lhumerus 64.5961 -10.9188 -2.62415
lradius 31.6318
lwrist 3.79048
lhand -42.6409 11.3002
lfingers 7.12502
lthumb -15.5125 40.698
rfemur -47.1389 -15.4538 29.4813
rtibia 124.799
rfoot -51.0866 -16.682
rtoes -5.08434
lfemur -50.2446 5.35038 -14.9192
ltibia 126.89
lfoot -45.0114 -16.7116
ltoes -5.87399
85
root -0.125611 10.2116 6.82993 167.442 -7.33989 -176.476
lowerback 25.214 -2.54138 2.06081
upperback 5.13322 -3.87357 -0.412133
thorax -8.45198 -2.33945 -0.338551
lowerneck -4.45821 -8.23016 -4.0735
upperneck -10.8876 -9.2522 12.045
head -1.91133 -4.32927 4.68653
rclavicle 4.31363e-014 -1.03368e-014
rhumerus 70.0222 9.65101 2.99331
rradius 42.2315
rwrist -56.1062
rhand -43.7547 -6.28171
rfingers 7.12502
rthumb -16.585 -35.593
lclavicle 4.31363e-014 -1.03368e-014
lhumerus 64.6061 -10.8656 -2.49681
lradius 31.474
lwrist 3.38311
lhand -42.463 11.3575
lfingers 7.12502
lthumb -15.3412 40.7684
rfemur -47.3889 -15.8736 29.5349
rtibia 126.027
rfoot -51.5177 -16.6782
rtoes -4.94636
lfemur -50.5972 5.96212 -14.7374
ltibia 128.208
lfoot -45.4229 -16.8965
ltoes -6.0116
86
root -0.128687 10.0813 6.81556 167.245 -7.27936 -176.5
lowerback 25.3111 -2.4837 1.99323
upperback 5.21914 -3.83671 -0.411659
thorax -8.40057 -2.32924 -0.308659
lowerneck -4.59454 -8.26251 -4.00699
upperneck -10.8568 -9.29532 12.0062
head -1.87809 -4.34585 4.65035
rclavicle -6.04305e-014 1.39149e-014
rhumerus 70.0055 9.60737 3.16927
rradius 42.2204
rwrist -56.2245
rhand -43.713 -6.38681
rfingers 7.12502
rthumb -16.5449 -35.7015
lclavicle -6.04305e-014 1.39149e-014
lhumerus 64.6362 -10.8479 -2.54171
lradius 31.3389
lwrist 3.129
lhand -42.3694 11.4788
lfingers 7.12502
lthumb -15.251 40.8966
rfemur -47.6463 -16.321 29.515
rtibia 127.206
rfoot -51.96 -16.6707
rtoes -4.77109
lfemur -50.9084 6.55264 -14.6365
ltibia 129.439
lfoot -45.8398 -17.0485
ltoes -6.18063
87
root -0.132068 9.9575 6.80187 167.025 -7.20942 -176.491
lowerback 25.436 -2.42615 1.94768
upperback 5.30237 -3.7931 -0.39093
thorax -8.36592 -2.31665 -0.269618
lowerneck -4.7098 -8.2898 -3.91261
upperneck -10.8582 -9.33246 11.9218
head -1.86378 -4.36087 4.59557
rclavicle -2.05742e-014 4.77083e-015
rhumerus 69.9762 9.57512 3.05379
rradius 42.1389
rwrist -56.106
rhand -43.5619 -6.42175
rfingers 7.12502
rthumb -16.3995 -35.7485
lclavicle -2.05742e-014 4.77083e-015
lhumerus 64.6662 -10.8988 -2.7455
lradius 31.2574
lwrist 3.07793
lhand -42.371 11.665
lfingers 7.12502
lthumb -15.2526 41.0827
rfemur -47.824 -16.782 29.5144
rtibia 128.302
rfoot -52.4206 -16.6411
rtoes -4.5979
lfemur -51.1705 7.1792 -14.4703
ltibia 130.596
lfoot -46.2656 -17.2184
ltoes -6.25617
88
root -0.135018 9.84161 6.78802 166.816 -7.15797 -176.512
lowerback 25.5408 -2.37177 1.88148
upperback 5.38579 -3.76041 -0.389034
thorax -8.32132 -2.30868 -0.237156
lowerneck -4.86149 -8.31697 -3.79445
upperneck -10.815 -9.37535 11.8279
head -1.82943 -4.37833 4.52918
rclavicle 3.57812e-015 -1.78906e-014
rhumerus 69.9628 9.54554 2.68332
rradius 41.9436
rwrist -55.7641
rhand -43.3217 -6.44379
rfingers 7.12502
rthumb -16.1681 -35.7895
lclavicle 3.57812e-015 -1.78906e-014
lhumerus 64.7279 -10.987 -3.14645
lradius 31.2106
lwrist 3.23166
lhand -42.4037 11.9338
lfingers 7.12502
lthumb -15.284 41.3491
rfemur -47.9574 -17.2572 29.4637
rtibia 129.329
rfoot -52.8892 -16.6284
rtoes -4.5264
lfemur -51.3726 7.80313 -14.3427
ltibia 131.665
lfoot -46.6992 -17.3676
ltoes -6.33105
89
root -0.138036 9.73529 6.77545 166.626 -7.124 -176.488
lowerback 25.6098 -2.3371 1.86154
upperback 5.47616 -3.74142 -0.380937
thorax -8.2531 -2.30828 -0.221986
lowerneck -5.03555 -8.34485 -3.68273
upperneck -10.7667 -9.41746 11.7462
head -1.78871 -4.39406 4.46713
rclavicle -1.33186e-014 2.54444e-014
rhumerus 69.9608 9.50702 2.12552
rradius 41.6999
rwrist -55.2432
rhand -43.0467 -6.47385
rfingers 7.12502
rthumb -15.9033 -35.8409
lclavicle -1.33186e-014 2.54444e-014
lhumerus 64.8066 -11.1122 -3.78126
lradius 31.233
lwrist 3.66867
lhand -42.5107 12.2245
lfingers 7.12502
lthumb -15.3871 41.6319
rfemur -48.0692 -17.7345 29.4692
rtibia 130.253
rfoot -53.3277 -16.6459
rtoes -4.468
lfemur -51.5464 8.26347 -14.1902
ltibia 132.639
lfoot -47.1197 -17.4811
ltoes -6.39094
90
root -0.140621 9.63904 6.76267 166.447 -7.08708 -176.507
lowerback 25.6607 -2.28313 1.80851
upperback 5.56642 -3.7072 -0.390112
thorax -8.17498 -2.29984 -0.212848
lowerneck -5.16578 -8.38209 -3.55555
upperneck -10.7695 -9.46479 11.682
head -1.77244 -4.41398 4.41283
rclavicle -6.95746e-014 2.18663e-014
rhumerus 69.9222 9.47122 1.60472
rradius 41.4542
rwrist -54.6705
rhand -42.7245 -6.54488
rfingers 7.12502
rthumb -15.593 -35.9363
lclavicle -6.95746e-014 2.18663e-014
lhumerus 64.9445 -11.2854 -4.67097
lradius 31.3087
lwrist 4.47177
lhand -42.7159 12.4924
lfingers 7.12502
lthumb -15.5847 41.8845
rfemur -48.1307 -18.186 29.4135
rtibia 131.093
rfoot -53.7975 -16.6298
rtoes -4.27394
lfemur -51.6685 8.67944 -14.0926
ltibia 133.514
lfoot -47.5431 -17.5343
ltoes -6.51861
91
root -0.143497 9.55389 6.75037 166.291 -7.06371 -176.535
lowerback 25.6868 -2.23758 1.74065
upperback 5.65054 -3.68529 -0.390448
thorax -8.09013 -2.29615 -0.182688
lowerneck -5.36072 -8.40974 -3.43754
upperneck -10.6939 -9.51412 11.5653
head -1.72095 -4.43306 4.33526
rclavicle -8.74653e-015 1.07344e-014
rhumerus 69.9104 9.44565 1.22589
rradius 41.2621
rwrist -54.1493
rhand -42.4718 -6.70955
rfingers 7.12502
rthumb -15.3496 -36.1198
lclavicle -8.74653e-015 1.07344e-014
lhumerus 65.047 -11.4795 -5.66111
lradius 31.4642
lwrist 5.43435
lhand -42.8666 12.748
lfingers 7.12502
lthumb -15.7299 42.1287
rfemur -48.1651 -18.6002 29.3397
rtibia 131.83
rfoot -54.2504 -16.6513
rtoes -4.2314
lfemur -51.7718 9.00502 -14.0329
ltibia 134.265
lfoot -47.8946 -17.5846
ltoes -6.56546
92
root -0.146068 9.48588 6.73863 166.122 -7.03749 -176.543
lowerback 25.7453 -2.20303 1.67288
upperback 5.71809 -3.67411 -0.377429
thorax -8.0395 -2.29677 -0.132208
lowerneck -5.49906 -8.42463 -3.37184
upperneck -10.6449 -9.54194 11.4837
head -1.68574 -4.44254 4.28454
rclavicle 3.13086e-014 -1.74931e-014
rhumerus 69.9408 9.45633 1.17914
rradius 41.1665
rwrist -53.8516
rhand -42.3108 -6.87661
rfingers 7.12502
rthumb -15.1946 -36.2987
lclavicle 3.13086e-014 -1.74931e-014
lhumerus 65.1443 -11.7221 -6.69024
lradius 31.6147
lwrist 6.53423
lhand -43.0527 12.931
lfingers 7.12502
lthumb -15.9091 42.2975
rfemur -48.1029 -18.9025 29.2954
rtibia 132.403
rfoot -54.6319 -16.6961
rtoes -4.09857
lfemur -51.7719 9.2687 -13.9507
ltibia 134.863
lfoot -48.2371 -17.63
ltoes -6.53789
93
root -0.147996 9.44023 6.72842 166.002 -7.02504 -176.564
lowerback 25.7947 -2.16393 1.6086
upperback 5.76405 -3.65203 -0.378447
thorax -8.00941 -2.29014 -0.102505
lowerneck -5.60902 -8.45784 -3.33386
upperneck -10.6206 -9.58859 11.4372
head -1.65906 -4.46142 4.25308
rclavicle -3.39922e-014 3.18055e-015
rhumerus 69.9108 9.4725 1.5688
rradius 41.2474
rwrist -53.9138
rhand -42.2618 -7.13055
rfingers 7.12502
rthumb -15.1474 -36.5562
lclavicle -3.39922e-014 3.18055e-015
lhumerus 65.2722 -11.9622 -7.65498
lradius 31.7741
lwrist 7.64986
lhand -43.2212 12.9308
lfingers 7.12502
lthumb -16.0714 42.2844
rfemur -48.0289 -19.068 29.2489
rtibia 132.796
rfoot -54.9591 -16.6806
rtoes -3.94099
lfemur -51.7404 9.39459 -13.9233
ltibia 135.267
lfoot -48.4822 -17.5989
ltoes -6.62885
94
root -0.150134 9.41552 6.71787 165.889 -7.01656 -176.602
lowerback 25.8259 -2.12153 1.51987
upperback 5.82078 -3.63401 -0.378236
thorax -7.95689 -2.28579 -0.0574859
lowerneck -5.76988 -8.48241 -3.27453
upperneck -10.5641 -9.62902 11.3573
head -1.61624 -4.4758 4.20241
rclavicle -1.36167e-014 1.47101e-014
rhumerus 69.8942 9.46513 2.19996
rradius 41.4184
rwrist -54.2097
rhand -42.279 -7.43964
rfingers 7.12502
rthumb -15.1639 -36.864
lclavicle -1.36167e-014 1.47101e-014
lhumerus 65.3782 -12.1786 -8.55382
lradius 31.9409
lwrist 8.73838
lhand -43.3435 12.8895
lfingers 7.12502
lthumb -16.1891 42.2335
rfemur -47.8577 -19.0948 29.1878
rtibia 133.01
rfoot -55.1955 -16.7567
rtoes -3.90395
lfemur -51.6001 9.41617 -13.9554
ltibia 135.478
lfoot -48.6988 -17.4839
ltoes -6.8038
95
root -0.151909 9.40833 6.70906 165.793 -7.02735 -176.588
lowerback 25.8581 -2.10452 1.50493
upperback 5.85942 -3.62566 -0.38367
thorax -7.9294 -2.2856 -0.0570832
lowerneck -5.92414 -8.51824 -3.26304
upperneck -10.4885 -9.68129 11.3437
head -1.56141 -4.49511 4.1828
rclavicle -1.07344e-014 -5.96354e-015
rhumerus 69.8564 9.50268 2.79196
rradius 41.5897
rwrist -54.5292
rhand -42.3077 -7.64159
rfingers 7.12502
rthumb -15.1916 -37.0639
lclavicle -1.07344e-014 -5.96354e-015
lhumerus 65.5055 -12.4309 -9.39225
lradius 32.0942
lwrist 9.76206
lhand -43.4832 12.8301
lfingers 7.12502
lthumb -16.3237 42.1631
rfemur -47.6751 -18.9297 29.2307
rtibia 133.054
rfoot -55.3147 -16.8753
rtoes -3.86597
lfemur -51.4539 9.307 -13.9467
ltibia 135.543
lfoot -48.7763 -17.4179
ltoes -6.8309
